<svg id="Layer_1" data-name="Layer 1" xmlns="http://www.w3.org/2000/svg" viewBox="0 0 299.65 91.07"><defs><style>.cls-1{fill:#101820;}.cls-2{fill:#cfc493;}</style></defs><path class="cls-1" d="M273.19,287.88c.64,0,.66-.41.66-.82V286c0-.74-.06-.81-.8-.81h-6.84V272.21c0-.41,0-.8-.66-.8h-1.42a.59.59,0,0,0-.66.66l0,15.16c0,.43.2.65.61.65Zm0,0" transform="translate(-225 -197)"/><path class="cls-1" d="M315.57,278a7.21,7.21,0,0,0-14.4,0v3.23a7.21,7.21,0,0,0,14.4,0Zm-2.78,3.23a4.43,4.43,0,0,1-8.84,0V278a4.43,4.43,0,0,1,8.84,0Zm0,0" transform="translate(-225 -197)"/><path class="cls-1" d="M357.73,272.07a.68.68,0,0,0-.68-.66h-1.4a.68.68,0,0,0-.68.66v10.27l-7.07-10.63v0a.58.58,0,0,0-.55-.33h-1.53a.67.67,0,0,0-.66.66l0,15.16a.62.62,0,0,0,.61.65h1.43a.68.68,0,0,0,.68-.65V277c2.53,3.74,4.67,6.92,7.14,10.6a.61.61,0,0,0,.58.31h1.4a.68.68,0,0,0,.68-.65Zm0,0" transform="translate(-225 -197)"/><path class="cls-1" d="M393.58,274.15a3.83,3.83,0,0,1,3.81,3.79v3.41a3.84,3.84,0,0,1-3.81,3.79h-3.77v-11Zm-5.83-2.74a.7.7,0,0,0-.7.66l0,15.16a.62.62,0,0,0,.66.65h5.83a6.56,6.56,0,0,0,6.55-6.53v-3.41a6.56,6.56,0,0,0-6.55-6.53Zm0,0" transform="translate(-225 -197)"/><path class="cls-1" d="M444,278a7,7,0,0,0-7.17-6.82,7,7,0,0,0-7.23,6.82v3.23a7.21,7.21,0,0,0,14.4,0Zm-2.78,3.23a4.43,4.43,0,0,1-8.84,0V278a4.43,4.43,0,0,1,8.84,0Zm0,0" transform="translate(-225 -197)"/><path class="cls-1" d="M486.18,272.07a.68.68,0,0,0-.68-.66h-1.4a.68.68,0,0,0-.68.66v10.27l-7.07-10.63v0a.57.57,0,0,0-.55-.33h-1.53a.66.66,0,0,0-.65.66l0,15.16a.62.62,0,0,0,.61.65h1.43a.67.67,0,0,0,.67-.65V277c2.54,3.74,4.68,6.92,7.15,10.6a.61.61,0,0,0,.58.31h1.4a.68.68,0,0,0,.68-.65Zm0,0" transform="translate(-225 -197)"/><rect class="cls-2" width="14.83" height="61.79"/><path class="cls-2" d="M291.35,258.79V197L258,225.43V197H243.16v61.79l33.37-28v28Zm0,0" transform="translate(-225 -197)"/><path class="cls-2" d="M319.59,197.38H296.11v61.8h23.48a30.9,30.9,0,1,0,0-61.8Zm11.79,42.69a16.56,16.56,0,0,1-11.79,4.84h-8.65V211.55h8.56a16.55,16.55,0,0,1,16.73,16.73,16.53,16.53,0,0,1-4.85,11.79Zm0,0" transform="translate(-225 -197)"/><path class="cls-2" d="M371,234.55h24.05V221.24H371V210.31h28.33V197H356.19v61.79h43.16V245.48H371Zm0,0" transform="translate(-225 -197)"/><path class="cls-2" d="M419.89,234.55h24.05V221.24H419.89V210.31h28.33V197H405.06v61.79h43.16V245.48H419.89Zm0,0" transform="translate(-225 -197)"/><path class="cls-2" d="M483.58,197H453.92v61.79h14.83V239.11h14.64c16.36,0,22.25-12.26,22.25-21,0-9.51-6.85-21.11-22.06-21.11Zm6.94,26.33a9.3,9.3,0,0,1-2.18,1.62,12.52,12.52,0,0,1-4.95.86H468.75v-15.5h14.83c3,0,5.23.76,6.75,2.47a8.46,8.46,0,0,1,2,5.33,8.62,8.62,0,0,1-1.81,5.22Zm0,0" transform="translate(-225 -197)"/><rect class="cls-2" x="286.34" y="48.48" width="13.31" height="13.31"/></svg>